REM DIRINDEX 1\2\6,1\2\7,1\2\8,1\2\9,1\3\10,1\3\11,1\4\12,1\4\13,1\4\14,1\5\15,1\5\16,1\5\17
REM DIRNAME folder01,folder02,folder03,folder04,folder05,folder06,folder07,folder08,folder09,folder10,folder11,folder12,folder13,folder14,folder15,folder16,folder17
TITLE ""
FILE "1900_3_085 sec15_1401_0416.mp3" MP3
  TRACK 01 AUDIO
    TITLE "0:"
    INDEX 01 00:00:00
  TRACK 02 AUDIO
    TITLE "15:cjc020_8782"
    INDEX 01 00:00:15
  TRACK 03 AUDIO
    TITLE "0:"
    INDEX 01 00:01:69
  TRACK 04 AUDIO
    TITLE "17:cjc020_8783"
    INDEX 01 00:02:71
  TRACK 05 AUDIO
    TITLE "0:"
    INDEX 01 00:04:25
  TRACK 06 AUDIO
    TITLE "16:cjc020_8784"
    INDEX 01 00:04:29
  TRACK 07 AUDIO
    TITLE "0:"
    INDEX 01 00:05:42
  TRACK 08 AUDIO
    TITLE "17:cjc020_8785"
    INDEX 01 00:06:24
  TRACK 09 AUDIO
    TITLE "0:"
    INDEX 01 00:07:39
  TRACK 10 AUDIO
    TITLE "16:cjc020_8786"
    INDEX 01 00:07:45
  TRACK 11 AUDIO
    TITLE "0:"
    INDEX 01 00:08:60
  TRACK 12 AUDIO
    TITLE "17:cjc020_8787"
    INDEX 01 00:09:44
  TRACK 13 AUDIO
    TITLE "0:"
    INDEX 01 00:10:72
  TRACK 14 AUDIO
    TITLE "16:cjc020_8788"
    INDEX 01 00:11:01
  TRACK 15 AUDIO
    TITLE "0:"
    INDEX 01 00:12:14
  TRACK 16 AUDIO
    TITLE "17:cjc020_8789"
    INDEX 01 00:13:00
  TRACK 17 AUDIO
    TITLE "0:"
    INDEX 01 00:14:02
  TRACK 18 AUDIO
    TITLE "16:cjc020_8790"
    INDEX 01 00:14:07
  TRACK 19 AUDIO
    TITLE "0:"
    INDEX 01 00:15:13
  TRACK 20 AUDIO
    TITLE "17:cjc020_8791"
    INDEX 01 00:15:72
  TRACK 21 AUDIO
    TITLE "0:"
    INDEX 01 00:17:12
  TRACK 22 AUDIO
    TITLE "16:cjc020_8792"
    INDEX 01 00:17:20
  TRACK 23 AUDIO
    TITLE "0:"
    INDEX 01 00:18:25
  TRACK 24 AUDIO
    TITLE "17:cjc020_8793"
    INDEX 01 00:19:09
  TRACK 25 AUDIO
    TITLE "0:"
    INDEX 01 00:19:65
  TRACK 26 AUDIO
    TITLE "16:cjc020_8794"
    INDEX 01 00:19:73
  TRACK 27 AUDIO
    TITLE "0:"
    INDEX 01 00:20:73
  TRACK 28 AUDIO
    TITLE "17:cjc020_8795"
    INDEX 01 00:21:58
  TRACK 29 AUDIO
    TITLE "0:"
    INDEX 01 00:23:12
  TRACK 30 AUDIO
    TITLE "16:cjc020_8796"
    INDEX 01 00:23:16
  TRACK 31 AUDIO
    TITLE "0:"
    INDEX 01 00:24:29
  TRACK 32 AUDIO
    TITLE "17:cjc020_8797"
    INDEX 01 00:25:09
  TRACK 33 AUDIO
    TITLE "0:"
    INDEX 01 00:26:52
  TRACK 34 AUDIO
    TITLE "16:cjc020_8798"
    INDEX 01 00:26:54
  TRACK 35 AUDIO
    TITLE "0:"
    INDEX 01 00:27:49
  TRACK 36 AUDIO
    TITLE "17:cjc020_8799"
    INDEX 01 00:28:33
  TRACK 37 AUDIO
    TITLE "0:"
    INDEX 01 00:29:48
  TRACK 38 AUDIO
    TITLE "16:cjc020_8800"
    INDEX 01 00:29:50
  TRACK 39 AUDIO
    TITLE "0:"
    INDEX 01 00:30:59
  TRACK 40 AUDIO
    TITLE "17:cjc020_8801"
    INDEX 01 00:31:41
  TRACK 41 AUDIO
    TITLE "0:"
    INDEX 01 00:32:35
  TRACK 42 AUDIO
    TITLE "16:cjc020_8802"
    INDEX 01 00:32:41
  TRACK 43 AUDIO
    TITLE "0:"
    INDEX 01 00:33:52
  TRACK 44 AUDIO
    TITLE "17:cjc020_8803"
    INDEX 01 00:34:34
  TRACK 45 AUDIO
    TITLE "0:"
    INDEX 01 00:35:25
  TRACK 46 AUDIO
    TITLE "16:cjc020_8804"
    INDEX 01 00:35:31
  TRACK 47 AUDIO
    TITLE "0:"
    INDEX 01 00:36:29
  TRACK 48 AUDIO
    TITLE "17:cjc020_8805"
    INDEX 01 00:37:14
  TRACK 49 AUDIO
    TITLE "0:"
    INDEX 01 00:38:41
  TRACK 50 AUDIO
    TITLE "16:cjc020_8806"
    INDEX 01 00:38:43
  TRACK 51 AUDIO
    TITLE "0:"
    INDEX 01 00:39:41
  TRACK 52 AUDIO
    TITLE "17:cjc020_8807"
    INDEX 01 00:40:24
  TRACK 53 AUDIO
    TITLE "0:"
    INDEX 01 00:41:45
  TRACK 54 AUDIO
    TITLE "16:cjc020_8808"
    INDEX 01 00:41:49
  TRACK 55 AUDIO
    TITLE "0:"
    INDEX 01 00:42:57
  TRACK 56 AUDIO
    TITLE "17:cjc020_8809"
    INDEX 01 00:43:40
  TRACK 57 AUDIO
    TITLE "0:"
    INDEX 01 00:45:06
  TRACK 58 AUDIO
    TITLE "16:cjc020_8810"
    INDEX 01 00:45:08
  TRACK 59 AUDIO
    TITLE "0:"
    INDEX 01 00:46:13
  TRACK 60 AUDIO
    TITLE "17:cjc020_8811"
    INDEX 01 00:46:72
  TRACK 61 AUDIO
    TITLE "0:"
    INDEX 01 00:48:20
  TRACK 62 AUDIO
    TITLE "16:cjc020_8812"
    INDEX 01 00:48:26
  TRACK 63 AUDIO
    TITLE "0:"
    INDEX 01 00:49:27
  TRACK 64 AUDIO
    TITLE "17:cjc020_8813"
    INDEX 01 00:50:09
  TRACK 65 AUDIO
    TITLE "0:"
    INDEX 01 00:51:44
  TRACK 66 AUDIO
    TITLE "16:cjc020_8814"
    INDEX 01 00:51:50
  TRACK 67 AUDIO
    TITLE "0:"
    INDEX 01 00:52:67
